<svg xmlns="http://www.w3.org/2000/svg" width="2799" height="2799" viewBox="0 0 2799 2799">
  <g id="그룹_816" data-name="그룹 816" transform="translate(-7724 9477)">
    <rect id="사각형_1027" data-name="사각형 1027" width="2799" height="2799" transform="translate(7724 -9477)" fill="#fff"/>
    <path id="패스_2915" data-name="패스 2915" d="M130.611,672.991H238.4v-292L368.721-12.921H263.874L190.384,238.907h-1.96L114.933-12.921H.288l130.323,393.91Zm435.064,9.8c105.826,0,163.639-62.712,163.639-172.458V149.738C729.315,39.992,671.5-22.72,565.676-22.72S402.037,39.992,402.037,149.738V510.332C402.037,620.078,459.849,682.79,565.676,682.79Zm0-97.987c-34.3,0-55.853-18.618-55.853-67.611V142.879c0-48.994,21.557-67.611,55.853-67.611s55.853,18.618,55.853,67.611V517.191C621.528,566.185,599.971,584.8,565.676,584.8ZM967.424,682.79c105.827,0,163.639-62.712,163.639-172.458V149.738c0-109.746-57.813-172.458-163.639-172.458S803.785,39.992,803.785,149.738V510.332C803.785,620.078,861.6,682.79,967.424,682.79Zm0-97.987c-34.3,0-55.853-18.618-55.853-67.611V142.879c0-48.994,21.557-67.611,55.853-67.611s55.853,18.618,55.853,67.611V517.191C1023.277,566.185,1001.72,584.8,967.424,584.8Zm245.949,88.189h107.786V364.33h115.625V672.991H1544.57V-12.921H1436.784V266.343H1321.159V-12.921H1213.373Zm577.146,9.8c105.827,0,163.639-62.712,163.639-172.458V149.738c0-109.746-57.813-172.458-163.639-172.458S1626.88,39.992,1626.88,149.738V510.332C1626.88,620.078,1684.692,682.79,1790.519,682.79Zm0-97.987c-34.3,0-55.853-18.618-55.853-67.611V142.879c0-48.994,21.557-67.611,55.853-67.611s55.853,18.618,55.853,67.611V517.191C1846.372,566.185,1824.814,584.8,1790.519,584.8Zm401.749,97.987c105.826,0,163.639-62.712,163.639-172.458V149.738c0-109.746-57.813-172.458-163.639-172.458s-163.639,62.712-163.639,172.458V510.332C2028.628,620.078,2086.441,682.79,2192.267,682.79Zm0-97.987c-34.3,0-55.853-18.618-55.853-67.611V142.879c0-48.994,21.557-67.611,55.853-67.611s55.853,18.618,55.853,67.611V517.191C2248.12,566.185,2226.563,584.8,2192.267,584.8Z" transform="translate(7945.712 -8407.28)" fill="#006837"/>
  </g>
</svg>